<svg width="20" height="21" viewBox="0 0 20 21" fill="none" xmlns="http://www.w3.org/2000/svg">
<path fill-rule="evenodd" clip-rule="evenodd" d="M13.5712 2.39111H16.2934C17.4196 2.39111 18.3333 3.31269 18.3333 4.4496V7.19453C18.3333 8.33058 17.4196 9.25302 16.2934 9.25302H13.5712C12.4441 9.25302 11.5304 8.33058 11.5304 7.19453V4.4496C11.5304 3.31269 12.4441 2.39111 13.5712 2.39111ZM3.70739 2.39111H6.4287C7.55582 2.39111 8.46947 3.31269 8.46947 4.4496V7.19453C8.46947 8.33058 7.55582 9.25302 6.4287 9.25302H3.70739C2.58028 9.25302 1.66663 8.33058 1.66663 7.19453V4.4496C1.66663 3.31269 2.58028 2.39111 3.70739 2.39111ZM3.70739 12.1959H6.4287C7.55582 12.1959 8.46947 13.1175 8.46947 14.2552V16.9993C8.46947 18.1362 7.55582 19.0578 6.4287 19.0578H3.70739C2.58028 19.0578 1.66663 18.1362 1.66663 16.9993V14.2552C1.66663 13.1175 2.58028 12.1959 3.70739 12.1959ZM13.5712 12.1959H16.2934C17.4196 12.1959 18.3333 13.1175 18.3333 14.2552V16.9993C18.3333 18.1362 17.4196 19.0578 16.2934 19.0578H13.5712C12.4441 19.0578 11.5304 18.1362 11.5304 16.9993V14.2552C11.5304 13.1175 12.4441 12.1959 13.5712 12.1959Z" stroke="#2C2872" stroke-width="1.5" stroke-linecap="round" stroke-linejoin="round"/>
</svg>
